<svg xmlns="http://www.w3.org/2000/svg" width="119.113" height="147.698" viewBox="0 0 119.113 147.698"><defs><style>.a{fill:#fff;}</style></defs><g transform="translate(0 0)"><path class="a" d="M126.082,223.845a2.377,2.377,0,0,0-1.214-2.1L86.752,200.3a2.391,2.391,0,0,0-2.294-.023l-13.167,7.056-13.166-7.054a2.384,2.384,0,0,0-2.294.023l-38.116,21.44a2.38,2.38,0,0,0,.041,4.174l9.422,5.048-9.422,5.048a2.382,2.382,0,0,0-.041,4.176l13.078,7.356V264.32a2.389,2.389,0,0,0,1.216,2.078l38.116,21.44a2.367,2.367,0,0,0,2.332,0l0,0,38.116-21.44a2.388,2.388,0,0,0,1.214-2.078V247.549l13.079-7.356a2.383,2.383,0,0,0-.041-4.176l-9.422-5.048,9.422-5.048a2.383,2.383,0,0,0,1.255-2.075ZM68.909,241.486l-5.858,3.294L37.269,230.969l31.64-16.952Zm2.382,4.126,3.262,1.834-3.262,1.748-3.26-1.748Zm8.24-.832-5.858-3.294v-27.47l31.641,16.952Zm-55.7-21.009L57.027,205.1l9.222,4.94L32.223,228.265Zm8.39,9.9L66.246,251.9l-9.222,4.94L23.83,238.168Zm3.335,29.254v-12.7l20.273,11.4a2.383,2.383,0,0,0,2.294.021l10.784-5.776v25.809Zm71.467,0-33.351,18.76V255.877l10.785,5.776a2.383,2.383,0,0,0,2.294-.021l20.272-11.4Zm11.726-24.761L85.556,256.837l-9.222-4.94,34.026-18.225Zm-8.39-9.9L76.337,210.038l9.222-4.94,33.194,18.672Zm0,0" transform="translate(-11.735 -140.444)"/><path class="a" d="M178.029,57.351a4.769,4.769,0,0,1-4.764-4.764H168.5a9.518,9.518,0,0,0,7.147,9.19v5.1h4.764v-5.1a9.509,9.509,0,0,0-2.382-18.719,4.764,4.764,0,1,1,4.764-4.764h4.764a9.517,9.517,0,0,0-7.147-9.19V24h-4.764v5.1a9.509,9.509,0,0,0,2.382,18.719,4.764,4.764,0,0,1,0,9.529Zm0,0" transform="translate(-118.473 -16.853)"/><path class="a" d="M133.087,57.174A28.587,28.587,0,1,0,104.5,28.587,28.618,28.618,0,0,0,133.087,57.174Zm0-52.409a23.822,23.822,0,1,1-23.822,23.822A23.849,23.849,0,0,1,133.087,4.764Zm0,0" transform="translate(-73.531 0)"/><path class="a" d="M355.558,108.764h-7.147V104h-4.764v4.764h-4.764a2.382,2.382,0,0,0-1.684,4.067l10.228,10.227H336.5v4.764h7.147v4.764h4.765v-4.764h4.764a2.381,2.381,0,0,0,1.684-4.067l-10.227-10.227h10.925Zm0,0" transform="translate(-236.446 -73.031)"/><path class="a" d="M7.647,132.587h4.764v-4.764h4.764a2.381,2.381,0,0,0,1.684-4.067L8.633,113.529H19.558v-4.764H12.411V104H7.647v4.764H2.882A2.382,2.382,0,0,0,1.2,112.831l10.228,10.227H.5v4.764H7.647Zm0,0" transform="translate(-0.5 -73.031)"/></g></svg>