<?xml version="1.0" encoding="iso-8859-1"?>
<!-- Generator: Adobe Illustrator 16.0.0, SVG Export Plug-In . SVG Version: 6.00 Build 0)  -->
<!DOCTYPE svg PUBLIC "-//W3C//DTD SVG 1.1//EN" "http://www.w3.org/Graphics/SVG/1.1/DTD/svg11.dtd">
<svg version="1.1" id="Capa_1" xmlns="http://www.w3.org/2000/svg" xmlns:xlink="http://www.w3.org/1999/xlink" x="0px" y="0px"
	 width="44.557px" height="44.557px" viewBox="0 0 44.557 44.557" style="enable-background:new 0 0 44.557 44.557;"
	 xml:space="preserve">
<g>
	<g>
		<path d="M42.313,20.889L22.592,1.166C21.815,0.389,20.797,0,19.779,0s-2.037,0.389-2.813,1.166l-10.8,10.798
			c-1.554,1.554-1.554,4.122,0,5.676l1.79,1.839h4.129l-3.854-3.904c-0.27-0.271-0.31-0.61-0.31-0.774s0.04-0.491,0.31-0.761
			l1.426-1.382l6.777,6.821h6.501L12.907,9.401l6.123-6.147c0.27-0.27,0.585-0.321,0.749-0.321s0.479,0.034,0.749,0.303
			l19.722,19.72c0.271,0.271,0.312,0.583,0.312,0.748c0,0.164-0.07,0.478-0.341,0.749l-1.118,1.091v4.129l3.184-3.155
			C43.84,24.961,43.868,22.443,42.313,20.889z"/>
		<path d="M33.06,21.328H5.167c-2.197,0-4.076,1.77-4.076,3.967v10.55h35.898v-10.55C36.989,23.098,35.257,21.328,33.06,21.328z
			 M10.839,32.253c-0.779,0-1.484-0.31-2.004-0.81c-0.52,0.5-1.226,0.81-2.003,0.81c-1.598,0-2.895-1.295-2.895-2.896
			c0-1.599,1.296-2.895,2.895-2.895c0.778,0,1.484,0.309,2.003,0.809c0.52-0.5,1.225-0.809,2.004-0.809
			c1.599,0,2.895,1.296,2.895,2.895C13.734,30.958,12.438,32.253,10.839,32.253z"/>
		<path d="M1.091,40.566c0,2.197,1.878,3.99,4.076,3.99H33.06c2.197,0,3.93-1.793,3.93-3.99v-0.234H1.091V40.566z"/>
	</g>
</g>
<g>
</g>
<g>
</g>
<g>
</g>
<g>
</g>
<g>
</g>
<g>
</g>
<g>
</g>
<g>
</g>
<g>
</g>
<g>
</g>
<g>
</g>
<g>
</g>
<g>
</g>
<g>
</g>
<g>
</g>
</svg>
