<svg xmlns="http://www.w3.org/2000/svg" width="128.997" height="132.172" viewBox="0 0 128.997 132.172"><defs><style>.a{fill:#fff;}</style></defs><g transform="translate(-5.976)"><g transform="translate(5.976)"><g transform="translate(0)"><rect class="a" width="4.25" height="4.25" transform="translate(89.997 47.177)"/><rect class="a" width="4.25" height="10.624" transform="translate(100.622 28.053)"/><rect class="a" width="4.25" height="4.25" transform="translate(100.622 42.927)"/><rect class="a" width="4.25" height="4.25" transform="translate(72.998 32.302)"/><path class="a" d="M179.922,13.608V40.8h4.25V10.775l8.5-5.667,8.5,5.667V28.053h4.25V13.608l5.2,3.464,2.359-3.536L192.671,0l-20.3,13.536,2.359,3.536Z" transform="translate(-128.173)"/><rect class="a" width="4.25" height="4.25" transform="translate(51.749 45.052)"/><rect class="a" width="4.25" height="21.249" transform="translate(62.374 11.054)"/><rect class="a" width="4.25" height="4.25" transform="translate(62.374 36.552)"/><rect class="a" width="4.25" height="8.5" transform="translate(26.251 38.677)"/><rect class="a" width="4.25" height="4.25" transform="translate(68.748 119.423)"/><rect class="a" width="4.25" height="4.25" transform="translate(60.249 119.423)"/><rect class="a" width="4.25" height="4.25" transform="translate(51.749 119.423)"/><path class="a" d="M125.167,102.677h-3.7V77.608l5.2,3.464,2.356-3.536L108.723,64l-20.3,13.535,2.356,3.536,5.2-3.464v12.32h4.25V74.775l8.5-5.667,8.5,5.667v27.9H47.1V88.232L52.3,91.7l2.356-3.536-20.3-13.535L14.048,88.16,16.4,91.7l5.2-3.464v10.2h4.25V85.4l8.5-5.667,8.5,5.667v17.277H15.784L5.976,134.55h9.252v44.623H125.722V134.55h9.252ZM11.73,130.3l7.191-23.374H82.472L75.279,130.3Zm71.494,44.623H19.478V134.55h58.94l4.806-15.62v55.993Zm38.248,0h-34V118.932L92.28,134.55h29.192ZM95.417,130.3l-7.191-23.374h33.8l7.193,23.374Z" transform="translate(-5.976 -47.001)"/></g></g></g></svg>