<svg xmlns="http://www.w3.org/2000/svg" width="129.333" height="129.333" viewBox="0 0 129.333 129.333"><defs><style>.a{fill:#fff;}</style></defs><g transform="translate(0 0)"><path class="a" d="M7.156,13.311H20.089a2.156,2.156,0,0,0,0-4.311H7.156a2.156,2.156,0,1,0,0,4.311Z" transform="translate(5.778 10.4)"/><path class="a" d="M18.156,13.311h19.4a2.156,2.156,0,0,0,0-4.311h-19.4a2.156,2.156,0,0,0,0,4.311Z" transform="translate(18.489 10.4)"/><path class="a" d="M7.156,24.311H76.133a2.156,2.156,0,0,0,0-4.311H7.156a2.156,2.156,0,0,0,0,4.311Z" transform="translate(5.778 23.111)"/><path class="a" d="M7.156,28.311H37.333a2.156,2.156,0,1,0,0-4.311H7.156a2.156,2.156,0,1,0,0,4.311Z" transform="translate(5.778 27.733)"/><path class="a" d="M7.156,36.311H37.333a2.156,2.156,0,1,0,0-4.311H7.156a2.156,2.156,0,1,0,0,4.311Z" transform="translate(5.778 36.978)"/><path class="a" d="M7.156,44.311H37.333a2.156,2.156,0,1,0,0-4.311H7.156a2.156,2.156,0,0,0,0,4.311Z" transform="translate(5.778 46.222)"/><path class="a" d="M7.156,52.311H37.333a2.156,2.156,0,1,0,0-4.311H7.156a2.156,2.156,0,1,0,0,4.311Z" transform="translate(5.778 55.467)"/><path class="a" d="M128.04,62.791,103.467,52.18V6.467A6.467,6.467,0,0,0,97,0H15.089A6.467,6.467,0,0,0,8.622,6.467V8.622H6.467A6.467,6.467,0,0,0,0,15.089V122.867a6.467,6.467,0,0,0,6.467,6.467H88.378A6.45,6.45,0,0,0,93,127.365l1.768,1.257a3.854,3.854,0,0,0,4.462,0l20.855-14.845a21.954,21.954,0,0,0,9.247-17.835V64.77A2.156,2.156,0,0,0,128.04,62.791ZM12.933,6.467a2.156,2.156,0,0,1,2.156-2.156H97a2.156,2.156,0,0,1,2.156,2.156v43.85l-1.293-.563a2.156,2.156,0,0,0-1.707,0l-1.293.563V36.644c0-.047-.024-.093-.028-.14a2.031,2.031,0,0,0-.1-.53c-.015-.05-.013-.1-.032-.149s-.034-.047-.045-.073a2.157,2.157,0,0,0-.431-.632L68.355,9.254a2.157,2.157,0,0,0-.632-.431c-.028-.013-.047-.034-.073-.045s-.1-.017-.147-.032a2.157,2.157,0,0,0-.537-.106.981.981,0,0,1-.144-.017H12.933Zm56.044,9.515L87.485,34.489H71.133a2.156,2.156,0,0,1-2.156-2.156Zm19.4,109.041H6.467a2.156,2.156,0,0,1-2.156-2.156V15.089a2.156,2.156,0,0,1,2.156-2.156h58.2v19.4A6.467,6.467,0,0,0,71.133,38.8h19.4V52.18l-6.939,3a2.105,2.105,0,0,0,.472-1.293,2.156,2.156,0,0,0-2.156-2.156H51.733a2.156,2.156,0,0,0,0,4.311H81.586l-9.98,4.311H12.933a2.156,2.156,0,1,0,0,4.311H64.682c0,.034-.015.067-.015.1v4.208H51.733a2.156,2.156,0,0,0,0,4.311H64.667V77.6H12.933a2.156,2.156,0,1,0,0,4.311H64.667v4.311H51.733a2.156,2.156,0,0,0,0,4.311H64.667v4.311H12.933a2.156,2.156,0,1,0,0,4.311h52a21.6,21.6,0,0,0,1.091,4.311H51.733a2.156,2.156,0,0,0,0,4.311H68.2a22.055,22.055,0,0,0,3.623,4.311H12.933a2.156,2.156,0,1,0,0,4.311H77.6l11.743,8.359A2.1,2.1,0,0,1,88.378,125.022Zm36.644-29.081a17.637,17.637,0,0,1-7.435,14.322L97,124.919,76.412,110.261a17.637,17.637,0,0,1-7.435-14.319V66.195l3.9-1.686.041-.017L97,54.081l28.022,12.106Z" transform="translate(0 0)"/><path class="a" d="M56.849,27.535,35.293,36.847A2.156,2.156,0,0,0,34,38.826v25.5a13.317,13.317,0,0,0,5.622,10.808L56.461,87.126a2.155,2.155,0,0,0,2.5,0L75.8,75.139a13.321,13.321,0,0,0,5.622-10.808v-25.5a2.156,2.156,0,0,0-1.293-1.979L58.573,27.535A2.156,2.156,0,0,0,56.849,27.535ZM77.111,40.253V64.331A9.006,9.006,0,0,1,73.3,71.64L57.711,82.724l-15.587-11.1a9,9,0,0,1-3.813-7.3V40.242l19.4-8.379Z" transform="translate(39.289 31.611)"/><path class="a" d="M41.449,50.52a2.156,2.156,0,0,0-2.587,3.449l8.622,6.467a2.156,2.156,0,0,0,2.977-.377L67.706,38.5a2.156,2.156,0,1,0-3.367-2.694L48.4,55.735Z" transform="translate(43.911 40.444)"/></g></svg>