<svg xmlns="http://www.w3.org/2000/svg" width="48.58" height="48.58" viewBox="0 0 48.58 48.58"><defs><style>.a{fill:#8d8d8d;}</style></defs><path class="a" d="M24.289,0A24.29,24.29,0,1,0,48.58,24.289,24.291,24.291,0,0,0,24.289,0Zm5.056,37.645q-1.875.74-2.992,1.127a7.893,7.893,0,0,1-2.6.389,5.172,5.172,0,0,1-3.531-1.108,3.577,3.577,0,0,1-1.256-2.811,10.211,10.211,0,0,1,.093-1.355c.064-.461.165-.979.3-1.561L20.931,26.8c.138-.531.257-1.034.352-1.5a6.665,6.665,0,0,0,.14-1.3,2,2,0,0,0-.436-1.474,2.476,2.476,0,0,0-1.672-.413,4.387,4.387,0,0,0-1.244.185c-.422.13-.788.247-1.088.362l.413-1.7q1.536-.626,2.941-1.071a8.687,8.687,0,0,1,2.653-.448,5.076,5.076,0,0,1,3.479,1.09,3.621,3.621,0,0,1,1.221,2.829q0,.361-.084,1.269a8.489,8.489,0,0,1-.313,1.668L25.737,31.8c-.127.442-.241.948-.343,1.513a8,8,0,0,0-.15,1.287,1.849,1.849,0,0,0,.491,1.5,2.751,2.751,0,0,0,1.7.4,4.933,4.933,0,0,0,1.287-.2,7.32,7.32,0,0,0,1.04-.35ZM29.07,15.276a3.715,3.715,0,0,1-2.622,1.012,3.754,3.754,0,0,1-2.632-1.012,3.23,3.23,0,0,1-1.1-2.453,3.262,3.262,0,0,1,1.1-2.459,3.727,3.727,0,0,1,2.632-1.022,3.685,3.685,0,0,1,2.622,1.022,3.313,3.313,0,0,1,0,4.912Z" transform="translate(0 0)"/></svg>