<svg xmlns="http://www.w3.org/2000/svg" width="47.581" height="47.581" viewBox="0 0 47.581 47.581"><defs><style>.a{fill:#030104;}</style></defs><g transform="translate(-0.21 -1)"><g transform="translate(0.21 1)"><path class="a" d="M23.789,0A23.79,23.79,0,1,0,47.581,23.789,23.791,23.791,0,0,0,23.789,0Zm4.952,36.87q-1.837.725-2.93,1.1a7.731,7.731,0,0,1-2.542.381,5.066,5.066,0,0,1-3.458-1.086,3.5,3.5,0,0,1-1.231-2.753,10,10,0,0,1,.091-1.327c.062-.451.161-.959.3-1.529L20.5,26.246c.135-.52.252-1.013.344-1.472a6.528,6.528,0,0,0,.137-1.275,1.963,1.963,0,0,0-.427-1.444,2.425,2.425,0,0,0-1.637-.4,4.3,4.3,0,0,0-1.218.181c-.413.127-.771.242-1.065.354l.4-1.668q1.5-.613,2.88-1.049a8.509,8.509,0,0,1,2.6-.439A4.971,4.971,0,0,1,25.924,20.1a3.546,3.546,0,0,1,1.2,2.771q0,.353-.083,1.243a8.315,8.315,0,0,1-.306,1.633l-1.525,5.4c-.125.433-.236.928-.336,1.482a7.838,7.838,0,0,0-.147,1.261,1.811,1.811,0,0,0,.481,1.466,2.7,2.7,0,0,0,1.666.391,4.831,4.831,0,0,0,1.261-.2,7.169,7.169,0,0,0,1.019-.342Zm-.27-21.908a3.639,3.639,0,0,1-2.568.991,3.677,3.677,0,0,1-2.578-.991,3.163,3.163,0,0,1-1.073-2.4,3.2,3.2,0,0,1,1.073-2.409,3.65,3.65,0,0,1,2.578-1,3.609,3.609,0,0,1,2.568,1,3.245,3.245,0,0,1,0,4.811Z"/></g></g></svg>