<svg xmlns="http://www.w3.org/2000/svg" width="30.33" height="22.865" viewBox="0 0 30.33 22.865"><defs><style>.a{fill:#787878;}</style></defs><g transform="translate(0 -0.5)"><path class="a" d="M209.241,366.453a.71.71,0,1,0,.5.208A.715.715,0,0,0,209.241,366.453Zm0,0" transform="translate(-196.278 -344.51)"/><path class="a" d="M24.744,12.233,23.364,6a1.479,1.479,0,0,0,.932-.514,1.767,1.767,0,0,0,.939.27H26.42a.592.592,0,0,0,.592-.592V2.789A.592.592,0,0,0,26.42,2.2H25.235a1.765,1.765,0,0,0-.964.285,1.476,1.476,0,0,0-1.108-.5h-3.5a1.482,1.482,0,0,0-1.38.948h-1.4a1.54,1.54,0,0,0,0,3.08h3.049V7.2a.592.592,0,0,0,1.185,0V6.01h1.037l1.487,6.719-2.814,5.013a1.74,1.74,0,0,1-1.514.885H12.287A4.984,4.984,0,0,0,7.345,14.24,4.928,4.928,0,0,0,4.274,15.3l0,0A4.947,4.947,0,0,0,2.4,18.625H1.186a7.853,7.853,0,0,1,7.842-7.7h4.2a.6.6,0,0,1,.6.6v5.32a.592.592,0,0,0,.592.592h3.152a3.533,3.533,0,0,0,3.533-3.529l0-1.968a.593.593,0,0,0-.592-.593h0a.592.592,0,0,0-.592.591l0,1.969a2.348,2.348,0,0,1-2.348,2.346h-2.56V11.528a1.777,1.777,0,0,0-.21-.84,1.777,1.777,0,0,0-.886-3.317H11.758a1.769,1.769,0,0,0-.592.1v-5.2A1.779,1.779,0,0,0,9.389.5H5.567A5.576,5.576,0,0,0,.07,5.186a.592.592,0,0,0-.028.179s0,.007,0,.011A5.594,5.594,0,0,0,0,6.067V9.148a1.78,1.78,0,0,0,1.512,1.757l1.312,1.312A9,9,0,0,0,0,18.77v.448a.592.592,0,0,0,.592.592H3.921a.605.605,0,0,0-.012.118,3.419,3.419,0,0,0,.842,2.249H.592a.592.592,0,0,0,0,1.185H7.277l.068,0a3.44,3.44,0,0,0,3.436-3.436.605.605,0,0,0-.012-.118h8.543a2.927,2.927,0,0,0,2.351-1.187h.75A3.426,3.426,0,0,0,23,22.178H15.315a.592.592,0,1,0,0,1.185H25.522l.068,0a3.434,3.434,0,0,0,3.178-4.741h.969a.592.592,0,0,0,.592-.592,5.81,5.81,0,0,0-5.586-5.8ZM11.758,8.556h2.162a.592.592,0,1,1,0,1.185H11.758a.592.592,0,0,1,0-1.185ZM1.185,6.067c0-.037,0-.073,0-.109H7.67a.592.592,0,1,0,0-1.185H1.38A4.39,4.39,0,0,1,5.567,1.684H9.389a.593.593,0,0,1,.592.592V9.148a.593.593,0,0,1-.592.592H1.777a.593.593,0,0,1-.592-.592Zm2.023,4.859H4.563a9.022,9.022,0,0,0-.824.532Zm6.389,9a2.253,2.253,0,0,1-2.228,2.25H7.277a2.253,2.253,0,0,1-2.183-2.249.605.605,0,0,0-.012-.118H9.608a.605.605,0,0,0-.012.118Zm-6-1.3A3.769,3.769,0,0,1,5,16.235l.005,0a3.754,3.754,0,0,1,2.338-.806,3.8,3.8,0,0,1,3.747,3.2ZM25.235,3.381h.592V4.566h-.592a.592.592,0,1,1,0-1.185ZM16.527,4.469a.356.356,0,0,1,.355-.355h1.305V4.53a1.485,1.485,0,0,0,.029.294H16.883a.356.356,0,0,1-.355-.355Zm4,.355h-.857a.3.3,0,0,1-.294-.294V3.46a.3.3,0,0,1,.294-.294h3.5a.3.3,0,0,1,.294.294V4.53a.3.3,0,0,1-.294.294Zm7.318,15.1a2.253,2.253,0,0,1-2.228,2.25h-.091a2.25,2.25,0,0,1-1.766-3.554h3.668a2.247,2.247,0,0,1,.417,1.305Zm-5.488-2.49,2.259-4.023a4.624,4.624,0,0,1,4.494,4.023Zm0,0" transform="translate(0 0)"/><path class="a" d="M337.164,145.087a.71.71,0,0,0,0-1.419h0a.71.71,0,1,0,0,1.419Zm0,0" transform="translate(-316.683 -134.779)"/></g></svg>