<svg xmlns="http://www.w3.org/2000/svg" viewBox="0 0 501 269.89"><defs><style>.cls-1,.cls-3{fill:none;}.cls-2,.cls-3{stroke:#000;stroke-miterlimit:10;stroke-width:9px;}</style></defs><title>Asset 3</title><g id="Layer_2" data-name="Layer 2"><g id="Layer_1-2" data-name="Layer 1"><path d="M207.53,249.86a10,10,0,1,0,7.07,2.93A10.08,10.08,0,0,0,207.53,249.86Z"/><path d="M435.07,138.49l-16.3-73.62a17.43,17.43,0,0,0,11-6.07A20.79,20.79,0,0,0,440.87,62h14a7,7,0,0,0,7-7V27a7,7,0,0,0-7-7h-14a20.83,20.83,0,0,0-11.38,3.37,17.41,17.41,0,0,0-13.07-5.91H375.14a17.49,17.49,0,0,0-16.29,11.19H342.28a18.18,18.18,0,1,0,0,36.36h36V79.13a7,7,0,0,0,14,0V65h12.24L422,144.34l-33.22,59.17A20.53,20.53,0,0,1,371,214H288a58.83,58.83,0,0,0-58.33-51.76,58.21,58.21,0,0,0-36.25,12.51l0,0a58.38,58.38,0,0,0-22,39.21H157a92.69,92.69,0,0,1,92.57-90.88h49.6a7.12,7.12,0,0,1,7.1,7.11V193a7,7,0,0,0,7,7h37.21a41.71,41.71,0,0,0,41.7-41.66l0-23.23a7,7,0,0,0-7-7h0a7,7,0,0,0-7,7l0,23.23A27.7,27.7,0,0,1,350.47,186H320.25V130.17a21,21,0,0,0-2.48-9.91,21,21,0,0,0-10.46-39.15H281.79a21,21,0,0,0-7,1.2V21a21,21,0,0,0-21-21h-45.1a65.83,65.83,0,0,0-64.9,55.32,7,7,0,0,0-.32,2.11s0,.08,0,.12a64.82,64.82,0,0,0-.51,8.17v36.37a21,21,0,0,0,17.85,20.74l15.48,15.48A106.31,106.31,0,0,0,143,215.66v5.28a7,7,0,0,0,7,7h39.3a7.23,7.23,0,0,0-.14,1.4,40.33,40.33,0,0,0,9.94,26.55H150a7,7,0,0,0,0,14h78.9l.81,0a40.61,40.61,0,0,0,40.56-40.56,7.23,7.23,0,0,0-.14-1.4H371a34.54,34.54,0,0,0,27.75-14h8.86a40.42,40.42,0,0,0,6.89,41.95H323.77a7,7,0,0,0,0,14H444.25l.81,0a40.53,40.53,0,0,0,37.51-56H494a7,7,0,0,0,7-7A68.58,68.58,0,0,0,435.07,138.49ZM281.79,95.1h25.52a7,7,0,1,1,0,14H281.79a7,7,0,0,1,0-14ZM157,65.72c0-.44,0-.86,0-1.3h76.51a7,7,0,1,0,0-14H159.29A51.82,51.82,0,0,1,208.72,14h45.1a7,7,0,0,1,7,7v81.11a7,7,0,0,1-7,7H164a7,7,0,0,1-7-7Zm23.88,57.35h16a105.21,105.21,0,0,0-9.72,6.27Zm75.41,106.26A26.59,26.59,0,0,1,230,255.89H228.9a26.6,26.6,0,0,1-25.77-26.55,7.23,7.23,0,0,0-.14-1.4h53.42A7.23,7.23,0,0,0,256.27,229.33ZM185.47,214a44.49,44.49,0,0,1,16.58-28.22l.06,0a44.33,44.33,0,0,1,27.59-9.51A44.85,44.85,0,0,1,273.93,214ZM440.87,34h7V48h-7a7,7,0,0,1,0-14ZM338.08,46.86a4.21,4.21,0,0,1,4.2-4.2h15.4v4.92a17.23,17.23,0,0,0,.35,3.47H342.28A4.2,4.2,0,0,1,338.08,46.86Zm47.18,4.19H375.14a3.47,3.47,0,0,1-3.47-3.47V35a3.48,3.48,0,0,1,3.47-3.47h41.28A3.48,3.48,0,0,1,419.89,35V47.58a3.47,3.47,0,0,1-3.47,3.47Zm86.37,178.28a26.59,26.59,0,0,1-26.3,26.56h-1.07a26.56,26.56,0,0,1-20.85-41.95h43.3A26.53,26.53,0,0,1,471.63,229.33Zm-64.77-29.39,26.66-47.49a54.59,54.59,0,0,1,53.05,47.49Z"/><path d="M335.47,47.07a10,10,0,0,0,0-20h0a10,10,0,1,0,0,20Z"/><line class="cls-1" x1="52" y1="97.9" x2="141.01" y2="97.9"/><line class="cls-2" x1="32" y1="97.9" x2="113.01" y2="97.9"/><line class="cls-3" x1="134.99" y1="119.4" x2="8.98" y2="119.4"/><line class="cls-3" x1="124" y1="140.9" x2="51.97" y2="140.9"/><line class="cls-3" x1="102" y1="158.4" y2="158.4"/></g></g></svg>