<svg xmlns="http://www.w3.org/2000/svg" width="52" height="52" viewBox="0 0 52 52"><path d="M48.585,19.283a10.021,10.021,0,0,1-1.562-1.992,10.282,10.282,0,0,1-.349-2.672c-.122-2.222-.273-4.988-2.29-7s-4.78-2.168-7-2.29a10.306,10.306,0,0,1-2.674-.349,10.038,10.038,0,0,1-1.992-1.563C31.04,1.893,28.952,0,26,0s-5.04,1.893-6.717,3.415a10.021,10.021,0,0,1-1.992,1.562,10.282,10.282,0,0,1-2.672.349c-2.222.122-4.988.273-7,2.29s-2.168,4.78-2.29,7a10.306,10.306,0,0,1-.349,2.674,10.038,10.038,0,0,1-1.563,1.992C1.893,20.96,0,23.048,0,26s1.893,5.04,3.415,6.717a10.021,10.021,0,0,1,1.562,1.992,10.282,10.282,0,0,1,.349,2.672c.122,2.222.273,4.988,2.29,7s4.78,2.168,7,2.29a10.306,10.306,0,0,1,2.674.349,10.038,10.038,0,0,1,1.992,1.563C20.96,50.107,23.048,52,26,52s5.04-1.893,6.717-3.415a10.021,10.021,0,0,1,1.992-1.562,10.282,10.282,0,0,1,2.672-.349c2.222-.122,4.988-.273,7-2.29s2.168-4.78,2.29-7a10.306,10.306,0,0,1,.349-2.674,10.038,10.038,0,0,1,1.563-1.992C50.107,31.04,52,28.952,52,26S50.107,20.96,48.585,19.283ZM19.5,26H13A13.015,13.015,0,0,1,26,13v6.5A6.506,6.506,0,0,0,19.5,26ZM26,39V32.5A6.506,6.506,0,0,0,32.5,26H39A13.015,13.015,0,0,1,26,39Z"/></svg>