<svg xmlns="http://www.w3.org/2000/svg" width="17.67" height="20.562" viewBox="0 0 17.67 20.562"><defs><style>.a{fill:#787878;}</style></defs><g transform="translate(-336.334 82.065)"><g transform="translate(336.334 -82.066)"><path class="a" d="M52.546,5.61a.161.161,0,0,0-.16-.148H49.494v-.8a4.658,4.658,0,1,0-9.317,0v.8H37.286a.161.161,0,0,0-.16.148L36,20.389a.161.161,0,0,0,.16.173H53.51a.161.161,0,0,0,.16-.173ZM41.462,4.658a3.373,3.373,0,1,1,6.747,0v.8H41.462Zm-.643,5.3a1.608,1.608,0,0,1-1.606-1.606,1.517,1.517,0,0,1,.964-1.472V8.353a.643.643,0,1,0,1.285,0V6.882a1.52,1.52,0,0,1,.964,1.471A1.608,1.608,0,0,1,40.82,9.959Zm8.032,0a1.608,1.608,0,0,1-1.606-1.606,1.517,1.517,0,0,1,.964-1.472V8.353a.643.643,0,1,0,1.285,0V6.882a1.52,1.52,0,0,1,.964,1.471A1.608,1.608,0,0,1,48.851,9.959Z" transform="translate(-36.001)"/></g></g></svg>