<svg xmlns="http://www.w3.org/2000/svg" width="61.422" height="56.322" viewBox="0 0 61.422 56.322"><g transform="translate(0 -20.222)"><g transform="translate(0 20.222)"><path d="M294.274,35.071h5.384l-7.982-13.694a2.323,2.323,0,0,0-4.01,2.345Z" transform="translate(-251.111 -20.222)"/><path d="M114.292,23.761a2.323,2.323,0,0,0-4.01-2.345L102.3,35.123h5.384Z" transform="translate(-89.4 -20.261)"/><path d="M57.463,171.278H3.947A3.945,3.945,0,0,0,0,175.225V179.6a3.945,3.945,0,0,0,3.947,3.947H5.183L8.991,204.19A5.408,5.408,0,0,0,14,208.553H46.631a5.408,5.408,0,0,0,5.006-4.363l3.833-20.655h2a3.945,3.945,0,0,0,3.947-3.947v-4.376A3.961,3.961,0,0,0,57.463,171.278ZM21.79,191.908v8.9a2.232,2.232,0,1,1-4.464,0V188.326a2.232,2.232,0,0,1,4.464,0Zm7.162,0v8.9a2.232,2.232,0,1,1-4.464,0V188.326a2.228,2.228,0,0,1,2.232-2.232,2.278,2.278,0,0,1,2.232,2.232Zm7.2,5.17v3.732a2.232,2.232,0,1,1-4.464,0V188.326a2.278,2.278,0,0,1,2.232-2.232,2.228,2.228,0,0,1,2.232,2.232Zm7.162,0v3.732a2.232,2.232,0,1,1-4.464,0V188.326a2.232,2.232,0,0,1,4.464,0Z" transform="translate(0 -152.23)"/></g></g></svg>