<svg xmlns="http://www.w3.org/2000/svg" viewBox="0 0 864.67 189.59"><defs><style>.cls-1{font-size:158.26px;fill:#f2f2f2;font-family:Alegreya-BoldItalic, Alegreya;font-weight:700;font-style:italic;}.cls-2{letter-spacing:0.01em;}.cls-3{letter-spacing:-0.01em;}.cls-4{letter-spacing:0em;}.cls-5{fill:#fff;}</style></defs><title>Asset 2</title><g id="Layer_2" data-name="Layer 2"><g id="Layer_2-2" data-name="Layer 2"><text class="cls-1" transform="translate(0 139.58)">Lar<tspan class="cls-2" x="218.4" y="0">r</tspan><tspan x="280.28" y="0">y</tspan><tspan class="cls-3" x="352.44" y="0">f</tspan><tspan class="cls-4" x="396.44" y="0">ood</tspan></text><path class="cls-5" d="M775,21.7V13a13,13,0,0,0-26,0V21.9A105,105,0,0,1,775,21.7Z"/><path class="cls-5" d="M669.08,131.6a23,23,0,0,0,20.83,12.7h146a23,23,0,0,0,20.83-12.7l7.95-16.83H661.13Z"/><path class="cls-5" d="M825.06,53c-16.55-15.36-38.63-23.85-62.16-23.85S717.29,37.64,700.74,53c-15.53,14.41-24.48,33.25-25.45,53.62H850.51C849.54,86.25,840.59,67.42,825.06,53Z"/></g></g></svg>