<svg xmlns="http://www.w3.org/2000/svg" width="55" height="55" viewBox="0 0 55 55"><path d="M0,22.344a6.862,6.862,0,0,0,5.156,6.633V51.563H1.719a1.719,1.719,0,1,0,0,3.438H53.281a1.719,1.719,0,0,0,0-3.437H49.844V28.977A6.862,6.862,0,0,0,55,22.344V20.625H0Zm34.375,6.875a6.873,6.873,0,0,0,6.875-6.875,6.862,6.862,0,0,0,5.156,6.633V51.563H20.625V29.219A6.873,6.873,0,0,0,27.5,22.344,6.878,6.878,0,0,0,34.375,29.219Zm-15.469-.242V51.563H8.594V28.977a6.862,6.862,0,0,0,5.156-6.633A6.862,6.862,0,0,0,18.906,28.977ZM48.125,5.156H6.875L0,18.906H55Zm-33.6,3.82-3.437,6.875a.867.867,0,0,1-.772.477.832.832,0,0,1-.383-.091.856.856,0,0,1-.383-1.151l3.438-6.875a.859.859,0,0,1,1.538.765Zm6.875,0L17.96,15.851a.867.867,0,0,1-.772.477.832.832,0,0,1-.383-.091.856.856,0,0,1-.383-1.151L19.86,8.211a.859.859,0,0,1,1.538.765Zm6.962,6.492a.859.859,0,0,1-1.719,0V8.594a.859.859,0,0,1,1.719,0Zm9.869.752a.858.858,0,0,1-1.168-.339L33.3,9.007a.861.861,0,0,1,1.511-.826l3.76,6.875A.863.863,0,0,1,38.229,16.221Zm6.841.017a.8.8,0,0,1-.383.091.85.85,0,0,1-.765-.477L40.485,8.976a.859.859,0,1,1,1.537-.765l3.438,6.875A.859.859,0,0,1,45.07,16.237ZM14.609,41.512V37.551a1.7,1.7,0,0,1-.859-1.457,1.719,1.719,0,0,1,3.437,0,1.692,1.692,0,0,1-.859,1.457v3.961a1.693,1.693,0,0,1,.859,1.457,1.719,1.719,0,1,1-2.578-1.457ZM6.875,1.719A1.72,1.72,0,0,1,8.594,0H46.406a1.719,1.719,0,0,1,0,3.438H8.594A1.72,1.72,0,0,1,6.875,1.719Zm23.25,36.7L28.91,37.2l4.861-4.861,1.215,1.215Zm0,4.861L28.91,42.066l9.722-9.722,1.215,1.215ZM38.632,37.2l1.215,1.215-4.861,4.861-1.215-1.215Z" transform="translate(0)"/></svg>